<svg xmlns="http://www.w3.org/2000/svg" xmlns:xlink="http://www.w3.org/1999/xlink" fill="none" version="1.1" width="26.2138671875" height="26.2138671875" viewBox="0 0 26.2138671875 26.2138671875"><defs><clipPath id="master_svg0_590_072600"><rect x="6.865478515625" y="6.865478515625" width="12.482946395874023" height="12.482948303222656" rx="0"/></clipPath></defs><ellipse cx="13.10693645477295" cy="13.10693645477295" rx="13.10693645477295" ry="13.10693645477295" fill="#F6FCFD" fill-opacity="1"/><ellipse cx="13.10693645477295" cy="13.10693645477295" rx="12.60693645477295" ry="12.60693645477295" fill-opacity="0" stroke-opacity="1" stroke="#CCCCCC" fill="none" stroke-width="1"/><g clip-path="url(#master_svg0_590_072600)"><path d="M18.028848171874998,7.904541015625L8.184377551875,7.904541015625C7.762471761875,7.904541015625,7.481201171875,8.185756685625,7.481201171875,8.607563675625L7.481201171875,17.606333715625C7.481201171875,18.028142015625,7.762471761875,18.309357015625,8.184377551875,18.309357015625L18.028848171874998,18.309357015625C18.450754171874998,18.309357015625,18.732023171875,18.028142015625,18.732023171875,17.606333715625L18.732023171875,8.607563675625C18.732023171875,8.185756685625,18.450754171874998,7.904541015625,18.028848171874998,7.904541015625ZM9.590730871875,16.903003715624997L9.590730871875,15.375791115624999L10.293906671875,15.375791115624999L10.293906671875,16.903003715624997L9.590730871875,16.903003715624997ZM11.700260671875,16.903003715624997L11.700260671875,15.375791115624999L12.403436171875,15.375791115624999L12.403436171875,16.903003715624997L11.700260671875,16.903003715624997ZM13.809788271875,16.903003715624997L13.809788271875,15.375791115624999L14.512966171875,15.375791115624999L14.512966171875,16.903003715624997L13.809788271875,16.903003715624997ZM15.919320071875,16.903003715624997L15.919320071875,15.375791115624999L16.622493771875,15.375791115624999L16.622493771875,16.903003715624997L15.919320071875,16.903003715624997ZM15.930305471875,11.860975015625C15.930305471875,11.439706315625,15.649033571875,11.158853015625,15.227129971875,11.158853015625L11.008070671875,11.158853015625C10.586164971875,11.158853015625,10.304893971875,11.439706315625,10.304893971875,11.860975015625L10.304893971875,12.563086015625L8.898541371875,12.563086015625L8.898541371875,9.310894015625L17.336656571875,9.310894015625L17.336656571875,12.563086015625L15.930305471875,12.563086015625L15.930305471875,11.860975015625Z" fill="#555555" fill-opacity="1" style="mix-blend-mode:passthrough"/></g></svg>