<svg xmlns="http://www.w3.org/2000/svg" xmlns:xlink="http://www.w3.org/1999/xlink" fill="none" version="1.1" width="32" height="32" viewBox="0 0 32 32"><defs><clipPath id="master_svg0_590_065745"><rect x="7" y="7.000335693359375" width="18" height="18" rx="0"/></clipPath></defs><ellipse cx="16" cy="16" rx="16" ry="16" fill="#F6FCFD" fill-opacity="1"/><ellipse cx="16" cy="16" rx="15.5" ry="15.5" fill-opacity="0" stroke-opacity="1" stroke="#CCCCCC" fill="none" stroke-width="1"/><g clip-path="url(#master_svg0_590_065745)"><path d="M19.9375,8.125335693359375C20.831063999999998,8.125286512371375,21.569765,8.821811263359375,21.622188,9.713835693359375L21.625000999999997,9.812835793359374L21.625000999999997,10.656585693359375L22.187500999999997,10.656585693359375C23.081063999999998,10.656535593359376,23.819765,11.353060993359374,23.872189,12.245086193359375L23.875000999999997,12.344085693359375L23.875000999999997,17.406585693359375C23.87505,18.300149693359373,23.178525,19.038850693359375,22.286501,19.091273693359376L22.187500999999997,19.094085693359375L21.625000999999997,19.094085693359375L21.625000999999997,22.469086693359372C21.625000999999997,23.401067693359373,20.869481999999998,24.156585693359375,19.9375,24.156585693359375L12.0625002,24.156585693359375C11.1305196,24.156585693359375,10.375,23.401067693359373,10.375,22.469086693359372L10.375,19.094085693359375L9.8125001,19.094085693359375C8.91893595,19.094135693359377,8.180234626,18.397610693359375,8.1278125001,17.505585693359375L8.125,17.406585693359375L8.125,12.344085693359375C8.124950046538,11.450522193359376,8.82147521,10.711820593359375,9.7135,10.659398293359375L9.8125001,10.656585693359375L10.375,10.656585693359375L10.375,9.812835793359374C10.3749504,8.919271293359374,11.0714757,8.180569805359376,11.9635003,8.128148193459374L12.0625002,8.125335693359375L19.9375,8.125335693359375ZM19.9375,16.844085693359375L12.0625002,16.844085693359375C11.751840099999999,16.844085693359375,11.5000002,17.095925293359375,11.5000002,17.406585693359375L11.5000002,22.469086693359372C11.5000002,22.779746693359375,11.751840099999999,23.031586693359372,12.0625002,23.031586693359372L19.9375,23.031586693359372C20.248161,23.031586693359372,20.500000999999997,22.779746693359375,20.500000999999997,22.469086693359372L20.500000999999997,17.406585693359375C20.500000999999997,17.095925293359375,20.248161,16.844085693359375,19.9375,16.844085693359375ZM22.187500999999997,11.781585893359376L9.8125001,11.781585893359376C9.5273267,11.781623393359375,9.287303,11.995058493359375,9.2539376,12.278273093359374L9.25,12.344085693359375L9.25,17.406585693359375C9.2500374,17.691759093359373,9.4634726,17.931783693359375,9.7466875,17.965148893359377L9.8125001,17.969085693359375L10.375,17.969085693359375L10.375,17.406585693359375C10.3749998,16.474605593359374,11.1305192,15.719086693359376,12.0625002,15.719086193359374L19.9375,15.719086193359374C20.869481999999998,15.719086693359376,21.625000999999997,16.474605593359374,21.625000999999997,17.406585693359375L21.625000999999997,17.969085693359375L22.187500999999997,17.969085693359375C22.472673999999998,17.969049493359375,22.712698,17.755613293359374,22.746063,17.472398793359375L22.750000999999997,17.406585693359375L22.750000999999997,12.344085693359375C22.749964,12.058912293359375,22.536528,11.818888193359374,22.253313,11.785523393359375L22.187500999999997,11.781585893359376ZM11.2187502,12.906585693359375C11.6847403,12.906585693359375,12.0625002,13.284345193359375,12.0625002,13.750335693359375C12.0625002,14.216326693359374,11.6847403,14.594086193359374,11.2187502,14.594086193359374C10.752759900000001,14.594086193359374,10.375,14.216326693359374,10.375,13.750335693359375C10.375,13.284345193359375,10.752759900000001,12.906585693359375,11.2187502,12.906585693359375ZM19.9375,9.250335693359375L12.0625002,9.250335693359375C11.7773266,9.250373093359375,11.5373027,9.463808293359374,11.5039377,9.747023193359375L11.5000002,9.812835793359374L11.5000002,10.656585693359375L20.500000999999997,10.656585693359375L20.500000999999997,9.812835793359374C20.499964,9.527661993359375,20.286528,9.287638093359375,20.003313,9.254273293359375L19.9375,9.250335693359375Z" fill="#3D3D3D" fill-opacity="1"/></g></svg>